<!DOCTYPE svg PUBLIC "-//W3C//DTD SVG 20010904//EN" "http://www.w3.org/TR/2001/REC-SVG-20010904/DTD/svg10.dtd">
<svg version="1.0" xmlns="http://www.w3.org/2000/svg" width="50px" height="50px" viewBox="0 0 500 500" preserveAspectRatio="xMidYMid meet">
<g id="layer101" fill="#ffffff" stroke="none">
 <path d="M152 485 c-99 -43 -152 -126 -152 -237 0 -149 100 -248 250 -248 150 0 250 99 250 248 0 112 -54 195 -155 238 -44 18 -150 18 -193 -1z m193 -33 c141 -69 172 -258 58 -363 -46 -43 -91 -61 -153 -61 -196 0 -296 231 -161 375 65 70 172 91 256 49z"/>
 <path d="M210 325 c0 -48 -2 -55 -20 -55 -16 0 -20 -7 -20 -30 0 -23 4 -30 20 -30 14 0 20 -7 20 -23 0 -41 27 -67 71 -67 35 0 39 3 39 25 0 20 -5 25 -25 25 -18 0 -25 5 -25 20 0 15 7 20 25 20 21 0 25 5 25 30 0 25 -4 30 -25 30 -24 0 -25 3 -25 55 0 54 0 55 -30 55 -30 0 -30 -1 -30 -55z"/>
 </g>

</svg>