<!DOCTYPE svg PUBLIC "-//W3C//DTD SVG 20010904//EN" "http://www.w3.org/TR/2001/REC-SVG-20010904/DTD/svg10.dtd">
<svg version="1.0" xmlns="http://www.w3.org/2000/svg" width="50px" height="50px" viewBox="0 0 500 500" preserveAspectRatio="xMidYMid meet">
<g id="layer101" fill="#ffffff" stroke="none">
 <path d="M152 485 c-99 -43 -152 -126 -152 -237 0 -149 100 -248 250 -248 150 0 250 99 250 248 0 112 -54 195 -155 238 -44 18 -150 18 -193 -1z m193 -33 c141 -69 172 -258 58 -363 -46 -43 -91 -61 -153 -61 -196 0 -296 231 -161 375 65 70 172 91 256 49z"/>
 <path d="M132 368 c-8 -8 -12 -49 -12 -118 0 -139 1 -140 136 -140 65 0 104 4 112 12 17 17 17 229 0 246 -16 16 -220 16 -236 0z m216 -80 c2 -36 -1 -58 -8 -58 -5 0 -10 11 -10 24 0 23 -49 76 -70 76 -41 0 -101 -64 -85 -90 3 -6 -1 -10 -9 -10 -13 0 -16 12 -16 53 0 30 3 57 7 61 4 4 48 5 98 4 l90 -3 3 -57z m-68 -12 c19 -23 8 -61 -18 -64 -45 -7 -72 46 -34 67 24 14 38 13 52 -3z m70 -106 c0 -13 -7 -20 -20 -20 -13 0 -20 7 -20 20 0 13 7 20 20 20 13 0 20 -7 20 -20z"/>
 </g>

</svg>